# xmcd
#
# Track frame offsets:
#	150
#	14051
#	30391
#	47326
#	60982
#	78897
#	94524
#	108720
#	124251
#	141198
#
# Disc length: 2094 seconds
#
# Revision: 1
# Processed by: cddbd v1.5.2PL0 Copyright (c) Steve Scherf et al.
# Submitted via: audiograbber 1.83.01
#
DISCID=78082c0a
DTITLE=Dolly Parton - Heartbreak Express
DYEAR=1982
DGENRE=Country
TTITLE0=Heartbreak Express
TTITLE1=Single Woman
TTITLE2=My Blue Rich Mountain Home
TTITLE3=As Much As Always
TTITLE4=Do I Ever Cross Your Mind
TTITLE5=Release Me
TTITLE6=Barbara On My Mind
TTITLE7=Act Like A Fool
TTITLE8=Prime Of Your Love
TTITLE9=Hollywood Potters
EXTD=
EXTT0=
EXTT1=
EXTT2=
EXTT3=
EXTT4=
EXTT5=
EXTT6=
EXTT7=
EXTT8=
EXTT9=
PLAYORDER=
